<?xml version="1.0" encoding="UTF-8"?>
<svg xmlns="http://www.w3.org/2000/svg" viewBox="0 0 1280 720"><rect id="background" data-pptx-role="background" width="1280" height="720" fill="#FFFFFF"/><image href="../images/image_8fa7a601c29ca778.png" x="50" y="28" width="140" height="40" preserveAspectRatio="xMidYMid meet"/><text x="260" y="68" font-family="Arial, sans-serif" font-size="36" font-weight="700" fill="#008C4F">4. Dự án MSB Office</text><rect x="970" y="30" width="250" height="42" rx="21" fill="#EAF6F0"/><text x="1095" y="57" text-anchor="middle" font-family="Arial, sans-serif" font-size="17" font-weight="700" fill="#008C4F">07/04–10/04/2026</text>
  <g data-pptx-bounds="56 112 1168 506" font-family="Arial, sans-serif">
    <g><rect x="56" y="112" width="360" height="225" rx="16" fill="#F4F7F5"/><text x="82" y="151" font-size="19" font-weight="700" fill="#008C4F">CÔNG VIỆC CHÍNH</text><text x="82" y="190" font-size="18" fill="#1F2329"><tspan x="82" dy="0">Fix lỗi đo sai năng lượng</tspan><tspan x="82" dy="31">Kiểm tra Jig tại nhà máy</tspan><tspan x="82" dy="31">Đối chiếu dữ liệu đo thực tế</tspan></text></g>
    <g><rect x="442" y="112" width="360" height="225" rx="16" fill="#EAF6F0"/><text x="468" y="151" font-size="19" font-weight="700" fill="#008C4F">KẾT QUẢ</text><text x="468" y="190" font-size="18" fill="#1F2329"><tspan x="468" dy="0">Lỗi đo sai đã được xử lý</tspan><tspan x="468" dy="31">1 task Done</tspan><tspan x="468" dy="31">1 task Ongoing cần đóng trạng thái</tspan></text></g>
    <g><rect x="828" y="112" width="396" height="225" rx="16" fill="#F4F7F5"/><text x="854" y="151" font-size="19" font-weight="700" fill="#008C4F">KỸ NĂNG</text><text x="854" y="190" font-size="18" fill="#1F2329"><tspan x="854" dy="0">Đo lường và hiệu chuẩn</tspan><tspan x="854" dy="31">Debug Jig tại thực địa</tspan><tspan x="854" dy="31">Phân tích sai lệch dữ liệu</tspan></text></g>
    <g><rect x="56" y="363" width="360" height="225" rx="16" fill="#EEF3FF"/><text x="82" y="402" font-size="19" font-weight="700" fill="#1456F0">TƯ DUY</text><text x="82" y="441" font-size="18" fill="#1F2329"><tspan x="82" dy="0">Dựa trên dữ liệu thay vì phỏng đoán</tspan><tspan x="82" dy="31">So sánh chuẩn–đo–sai lệch</tspan><tspan x="82" dy="31">Xác nhận tại môi trường thật</tspan></text></g>
    <g><rect x="442" y="363" width="360" height="225" rx="16" fill="#FFF7E8"/><text x="468" y="402" font-size="19" font-weight="700" fill="#B56A00">BÀI HỌC &amp; KHÓ KHĂN</text><text x="468" y="441" font-size="18" fill="#1F2329"><tspan x="468" dy="0">Lỗi thực địa khó tái hiện trong lab</tspan><tspan x="468" dy="31">Hiệu chuẩn phải có chuẩn tham chiếu</tspan><tspan x="468" dy="31">Cần đóng trạng thái sau hỗ trợ</tspan></text></g>
    <g><rect x="828" y="363" width="396" height="225" rx="16" fill="#008C4F"/><text x="854" y="402" font-size="19" font-weight="700" fill="#FFFFFF">THÀNH TÍCH NỔI BẬT</text><text x="854" y="458" font-size="24" font-weight="700" fill="#FFFFFF">FIX LỖI ĐO SAI</text><text x="854" y="494" font-size="18" fill="#FFFFFF">Năng lượng trên Jig MSB</text><image href="../images/image_bc82a45d35f49412.jpg" x="1080" y="438" width="115" height="120" preserveAspectRatio="xMidYMid slice"/></g>
  </g><text x="1220" y="708" text-anchor="end" font-family="Arial, sans-serif" font-size="14" fill="#66706A">17 / 23</text></svg>
