<?xml version="1.0" encoding="UTF-8"?>
<svg xmlns="http://www.w3.org/2000/svg" viewBox="0 0 1280 720"><rect id="background" data-pptx-role="background" width="1280" height="720" fill="#FFFFFF"/><image href="../images/image_8fa7a601c29ca778.png" x="50" y="28" width="140" height="40" preserveAspectRatio="xMidYMid meet"/><text x="260" y="68" font-family="Arial, sans-serif" font-size="36" font-weight="700" fill="#008C4F">Sử dụng AI trong công việc</text>
  <g id="use-cases" data-pptx-bounds="56 135 1168 360" font-family="Arial, sans-serif">
    <g><rect x="56" y="135" width="360" height="330" rx="20" fill="#F4F7F5"/><circle cx="106" cy="185" r="28" fill="#008C4F"/><text x="106" y="194" text-anchor="middle" font-size="24" font-weight="700" fill="#FFFFFF">01</text><text x="86" y="244" font-size="23" font-weight="700" fill="#008C4F">CODE &amp; DEBUG</text><text x="86" y="290" font-size="19" fill="#1F2329"><tspan x="86" dy="0">Gợi ý hướng xử lý lỗi</tspan><tspan x="86" dy="34">Sinh test case ban đầu</tspan><tspan x="86" dy="34">Đối chiếu API và flow</tspan></text><text x="86" y="420" font-size="16" fill="#66706A">Rút ngắn thời gian khám phá</text></g>
    <g><rect x="460" y="135" width="360" height="330" rx="20" fill="#EAF6F0"/><circle cx="510" cy="185" r="28" fill="#008C4F"/><text x="510" y="194" text-anchor="middle" font-size="24" font-weight="700" fill="#FFFFFF">02</text><text x="490" y="244" font-size="23" font-weight="700" fill="#008C4F">TÀI LIỆU</text><text x="490" y="290" font-size="19" fill="#1F2329"><tspan x="490" dy="0">Tóm tắt tài liệu KNX/ETS</tspan><tspan x="490" dy="34">Chuẩn hóa Q&amp;A và giáo trình</tspan><tspan x="490" dy="34">Soạn API/flow dễ bàn giao</tspan></text><text x="490" y="420" font-size="16" fill="#66706A">Tăng tốc chuẩn hóa tri thức</text></g>
    <g><rect x="864" y="135" width="360" height="330" rx="20" fill="#EEF3FF"/><circle cx="914" cy="185" r="28" fill="#1456F0"/><text x="914" y="194" text-anchor="middle" font-size="24" font-weight="700" fill="#FFFFFF">03</text><text x="894" y="244" font-size="23" font-weight="700" fill="#1456F0">HỌC NHANH</text><text x="894" y="290" font-size="19" fill="#1F2329"><tspan x="894" dy="0">Khảo sát công nghệ mới</tspan><tspan x="894" dy="34">So sánh phương án triển khai</tspan><tspan x="894" dy="34">Chuẩn bị câu hỏi kỹ thuật</tspan></text><text x="894" y="420" font-size="16" fill="#66706A">Giảm thời gian tiếp cận lĩnh vực mới</text></g>
  </g>
  <g data-pptx-bounds="56 510 1168 120"><rect x="56" y="510" width="1168" height="120" rx="18" fill="#008C4F"/><text x="86" y="551" font-family="Arial, sans-serif" font-size="17" font-weight="700" fill="#FFFFFF">NGUYÊN TẮC KIỂM CHỨNG</text><text x="86" y="594" font-family="Arial, sans-serif" font-size="24" fill="#FFFFFF">AI hỗ trợ tăng tốc; kết luận kỹ thuật vẫn phải được đo, test và xác nhận trên hệ thống thực tế.</text></g><text x="1220" y="708" text-anchor="end" font-family="Arial, sans-serif" font-size="14" fill="#66706A">19 / 23</text></svg>
